<?xml version="1.0" standalone="no"?>
<!DOCTYPE svg PUBLIC "-//W3C//DTD SVG 20010904//EN"
 "http://www.w3.org/TR/2001/REC-SVG-20010904/DTD/svg10.dtd">
<svg version="1.0" xmlns="http://www.w3.org/2000/svg"
 width="500.000000pt" height="231.000000pt" viewBox="0 0 500.000000 231.000000"
 preserveAspectRatio="xMidYMid meet">

<g transform="translate(0.000000,231.000000) scale(0.100000,-0.100000)"
fill="#000000" stroke="none">
<path d="M935 2209 c-10 -15 22 -36 74 -49 140 -35 368 -187 495 -329 17 -19
43 -48 59 -64 15 -17 27 -34 27 -38 0 -5 5 -9 10 -9 11 0 13 61 4 109 -8 38
-99 136 -161 175 -24 14 -43 33 -43 41 0 8 -8 15 -19 15 -23 0 -108 37 -117
51 -3 5 -30 21 -59 33 -29 13 -56 29 -59 35 -4 6 -24 11 -44 11 -20 1 -48 7
-62 15 -29 17 -96 20 -105 4z"/>
<path d="M518 1783 c6 -2 18 -2 25 0 6 3 1 5 -13 5 -14 0 -19 -2 -12 -5z"/>
<path d="M528 1673 c7 -3 16 -2 19 1 4 3 -2 6 -13 5 -11 0 -14 -3 -6 -6z"/>
<path d="M598 1673 c12 -2 30 -2 40 0 9 3 -1 5 -23 4 -22 0 -30 -2 -17 -4z"/>
</g>
</svg>
